{
    "asset" : {
        "generator" : "Khronos glTF Blender I/O v1.1.45",
        "version" : "2.0"
    },
    "scene" : 0,
    "scenes" : [
        {
            "name" : "Scene",
            "nodes" : [
                0
            ]
        }
    ],
    "nodes" : [
        {
            "mesh" : 0,
            "name" : "Plane.141",
            "scale" : [
                0.09999999403953552,
                0.09999999403953552,
                0.09999999403953552
            ],
            "translation" : [
                -14.5,
                0,
                2.5
            ]
        }
    ],
    "materials" : [
        {
            "doubleSided" : true,
            "emissiveFactor" : [
                0,
                0,
                0
            ],
            "name" : "Material.003",
            "pbrMetallicRoughness" : {
                "baseColorTexture" : {
                    "index" : 0,
                    "texCoord" : 0
                },
                "metallicFactor" : 0,
                "roughnessFactor" : 1
            }
        }
    ],
    "meshes" : [
        {
            "name" : "Plane.001",
            "primitives" : [
                {
                    "attributes" : {
                        "POSITION" : 0,
                        "TEXCOORD_0" : 1,
                        "TEXCOORD_1" : 2
                    },
                    "indices" : 3,
                    "material" : 0
                }
            ]
        }
    ],
    "textures" : [
        {
            "source" : 0
        }
    ],
    "images" : [
        {
            "mimeType" : "image/png",
            "name" : "lightmap",
            "uri" : "lightmap.png"
        }
    ],
    "accessors" : [
        {
            "bufferView" : 0,
            "componentType" : 5126,
            "count" : 25620,
            "max" : [
                145.00039672851562,
                13.605569839477539,
                135.00039672851562
            ],
            "min" : [
                -15.000404357910156,
                -1.2107624570489861e-05,
                -25.00039291381836
            ],
            "type" : "VEC3"
        },
        {
            "bufferView" : 1,
            "componentType" : 5126,
            "count" : 25620,
            "type" : "VEC2"
        },
        {
            "bufferView" : 2,
            "componentType" : 5126,
            "count" : 25620,
            "type" : "VEC2"
        },
        {
            "bufferView" : 3,
            "componentType" : 5123,
            "count" : 46416,
            "type" : "SCALAR"
        }
    ],
    "bufferViews" : [
        {
            "buffer" : 0,
            "byteLength" : 307440,
            "byteOffset" : 0
        },
        {
            "buffer" : 0,
            "byteLength" : 204960,
            "byteOffset" : 307440
        },
        {
            "buffer" : 0,
            "byteLength" : 204960,
            "byteOffset" : 512400
        },
        {
            "buffer" : 0,
            "byteLength" : 92832,
            "byteOffset" : 717360
        }
    ],
    "buffers" : [
        {
            "byteLength" : 810192,
            "uri" : "western_tiles_bake.bin"
        }
    ]
}
