{
    "asset" : {
        "generator" : "Khronos glTF Blender I/O v1.1.45",
        "version" : "2.0"
    },
    "scene" : 0,
    "scenes" : [
        {
            "name" : "Scene",
            "nodes" : [
                0,
                1
            ]
        }
    ],
    "nodes" : [
        {
            "mesh" : 0,
            "name" : "Mball.003",
            "scale" : [
                7.40273904800415,
                2.066132068634033,
                7.40273904800415
            ]
        },
        {
            "mesh" : 1,
            "name" : "House",
            "rotation" : [
                0,
                0.22380273044109344,
                0,
                0.9746344685554504
            ],
            "scale" : [
                1.608687162399292,
                1.608686923980713,
                2.1697494983673096
            ],
            "translation" : [
                0.31593769788742065,
                8.531294822692871,
                -1.165921688079834
            ]
        }
    ],
    "materials" : [
        {
            "doubleSided" : true,
            "emissiveFactor" : [
                0,
                0,
                0
            ],
            "name" : "P",
            "pbrMetallicRoughness" : {
                "baseColorTexture" : {
                    "index" : 0,
                    "texCoord" : 0
                },
                "metallicFactor" : 0,
                "roughnessFactor" : 1
            }
        },
        {
            "doubleSided" : true,
            "emissiveFactor" : [
                0,
                0,
                0
            ],
            "name" : "R",
            "pbrMetallicRoughness" : {
                "baseColorTexture" : {
                    "index" : 1,
                    "texCoord" : 0
                },
                "metallicFactor" : 0,
                "roughnessFactor" : 1
            }
        },
        {
            "doubleSided" : true,
            "emissiveFactor" : [
                0,
                0,
                0
            ],
            "name" : "Z",
            "pbrMetallicRoughness" : {
                "baseColorTexture" : {
                    "index" : 2,
                    "texCoord" : 0
                },
                "metallicFactor" : 0,
                "roughnessFactor" : 1
            }
        },
        {
            "doubleSided" : true,
            "emissiveFactor" : [
                0,
                0,
                0
            ],
            "name" : "W",
            "pbrMetallicRoughness" : {
                "baseColorTexture" : {
                    "index" : 3,
                    "texCoord" : 0
                },
                "metallicFactor" : 0,
                "roughnessFactor" : 1
            }
        }
    ],
    "meshes" : [
        {
            "name" : "Mesh.001",
            "primitives" : [
                {
                    "attributes" : {
                        "POSITION" : 0,
                        "TEXCOORD_0" : 1
                    },
                    "indices" : 2,
                    "material" : 0
                }
            ]
        },
        {
            "name" : "Cube",
            "primitives" : [
                {
                    "attributes" : {
                        "POSITION" : 3,
                        "TEXCOORD_0" : 4
                    },
                    "indices" : 5,
                    "material" : 1
                },
                {
                    "attributes" : {
                        "POSITION" : 6,
                        "TEXCOORD_0" : 7
                    },
                    "indices" : 8,
                    "material" : 2
                },
                {
                    "attributes" : {
                        "POSITION" : 9,
                        "TEXCOORD_0" : 10
                    },
                    "indices" : 11,
                    "material" : 3
                }
            ]
        }
    ],
    "textures" : [
        {
            "source" : 0
        },
        {
            "source" : 0
        },
        {
            "source" : 0
        },
        {
            "source" : 0
        }
    ],
    "images" : [
        {
            "mimeType" : "image/png",
            "name" : "Shadowmap",
            "uri" : "Shadowmap.png"
        }
    ],
    "accessors" : [
        {
            "bufferView" : 0,
            "componentType" : 5126,
            "count" : 1158,
            "max" : [
                2.12249493598938,
                3.7213134765625,
                2.12249493598938
            ],
            "min" : [
                -2.12249493598938,
                0.24999995529651642,
                -2.122523784637451
            ],
            "type" : "VEC3"
        },
        {
            "bufferView" : 1,
            "componentType" : 5126,
            "count" : 1158,
            "type" : "VEC2"
        },
        {
            "bufferView" : 2,
            "componentType" : 5123,
            "count" : 1158,
            "type" : "SCALAR"
        },
        {
            "bufferView" : 3,
            "componentType" : 5126,
            "count" : 78,
            "max" : [
                1,
                1.7635855674743652,
                1
            ],
            "min" : [
                -1,
                -1,
                -1
            ],
            "type" : "VEC3"
        },
        {
            "bufferView" : 4,
            "componentType" : 5126,
            "count" : 78,
            "type" : "VEC2"
        },
        {
            "bufferView" : 5,
            "componentType" : 5123,
            "count" : 78,
            "type" : "SCALAR"
        },
        {
            "bufferView" : 6,
            "componentType" : 5126,
            "count" : 84,
            "max" : [
                1.4111435413360596,
                1.9810503721237183,
                1.1798522472381592
            ],
            "min" : [
                -1.319985270500183,
                0.8321330547332764,
                -1.2264509201049805
            ],
            "type" : "VEC3"
        },
        {
            "bufferView" : 7,
            "componentType" : 5126,
            "count" : 84,
            "type" : "VEC2"
        },
        {
            "bufferView" : 8,
            "componentType" : 5123,
            "count" : 84,
            "type" : "SCALAR"
        },
        {
            "bufferView" : 9,
            "componentType" : 5126,
            "count" : 6,
            "max" : [
                0.28758302330970764,
                0.09776431322097778,
                0.7660102248191833
            ],
            "min" : [
                -0.3426993787288666,
                -0.8772979378700256,
                0.7660102248191833
            ],
            "type" : "VEC3"
        },
        {
            "bufferView" : 10,
            "componentType" : 5126,
            "count" : 6,
            "type" : "VEC2"
        },
        {
            "bufferView" : 11,
            "componentType" : 5123,
            "count" : 6,
            "type" : "SCALAR"
        }
    ],
    "bufferViews" : [
        {
            "buffer" : 0,
            "byteLength" : 13896,
            "byteOffset" : 0
        },
        {
            "buffer" : 0,
            "byteLength" : 9264,
            "byteOffset" : 13896
        },
        {
            "buffer" : 0,
            "byteLength" : 2316,
            "byteOffset" : 23160
        },
        {
            "buffer" : 0,
            "byteLength" : 936,
            "byteOffset" : 25476
        },
        {
            "buffer" : 0,
            "byteLength" : 624,
            "byteOffset" : 26412
        },
        {
            "buffer" : 0,
            "byteLength" : 156,
            "byteOffset" : 27036
        },
        {
            "buffer" : 0,
            "byteLength" : 1008,
            "byteOffset" : 27192
        },
        {
            "buffer" : 0,
            "byteLength" : 672,
            "byteOffset" : 28200
        },
        {
            "buffer" : 0,
            "byteLength" : 168,
            "byteOffset" : 28872
        },
        {
            "buffer" : 0,
            "byteLength" : 72,
            "byteOffset" : 29040
        },
        {
            "buffer" : 0,
            "byteLength" : 48,
            "byteOffset" : 29112
        },
        {
            "buffer" : 0,
            "byteLength" : 12,
            "byteOffset" : 29160
        }
    ],
    "buffers" : [
        {
            "byteLength" : 29172,
            "uri" : "metacave2.bin"
        }
    ]
}
