{
    "asset" : {
        "generator" : "Khronos glTF Blender I/O v1.1.45",
        "version" : "2.0"
    },
    "scene" : 0,
    "scenes" : [
        {
            "name" : "Scene",
            "nodes" : [
                0
            ]
        }
    ],
    "nodes" : [
        {
            "mesh" : 0,
            "name" : "Cylinder"
        }
    ],
    "materials" : [
        {
            "doubleSided" : true,
            "emissiveFactor" : [
                0,
                0,
                0
            ],
            "name" : "Material.002",
            "pbrMetallicRoughness" : {
                "baseColorTexture" : {
                    "index" : 0,
                    "texCoord" : 0
                },
                "metallicFactor" : 0,
                "roughnessFactor" : 1
            }
        },
        {
            "doubleSided" : true,
            "emissiveFactor" : [
                0,
                0,
                0
            ],
            "name" : "Sand",
            "pbrMetallicRoughness" : {
                "baseColorTexture" : {
                    "index" : 1,
                    "texCoord" : 0
                },
                "metallicFactor" : 0,
                "roughnessFactor" : 1
            }
        }
    ],
    "meshes" : [
        {
            "name" : "Cylinder",
            "primitives" : [
                {
                    "attributes" : {
                        "POSITION" : 0,
                        "TEXCOORD_0" : 1
                    },
                    "indices" : 2,
                    "material" : 0
                },
                {
                    "attributes" : {
                        "POSITION" : 3,
                        "TEXCOORD_0" : 4
                    },
                    "indices" : 5,
                    "material" : 1
                }
            ]
        }
    ],
    "textures" : [
        {
            "source" : 0
        },
        {
            "source" : 0
        }
    ],
    "images" : [
        {
            "mimeType" : "image/png",
            "name" : "Untitled",
            "uri" : "Untitled.png"
        }
    ],
    "accessors" : [
        {
            "bufferView" : 0,
            "componentType" : 5126,
            "count" : 57,
            "max" : [
                0.7740148901939392,
                0.3440066874027252,
                0.4856688976287842
            ],
            "min" : [
                0.14466512203216553,
                -1.1368683772161603e-13,
                0.01271030306816101
            ],
            "type" : "VEC3"
        },
        {
            "bufferView" : 1,
            "componentType" : 5126,
            "count" : 57,
            "type" : "VEC2"
        },
        {
            "bufferView" : 2,
            "componentType" : 5123,
            "count" : 93,
            "type" : "SCALAR"
        },
        {
            "bufferView" : 3,
            "componentType" : 5126,
            "count" : 17,
            "max" : [
                0.9999998807907104,
                0,
                0.4999999403953552
            ],
            "min" : [
                0,
                0,
                0
            ],
            "type" : "VEC3"
        },
        {
            "bufferView" : 4,
            "componentType" : 5126,
            "count" : 17,
            "type" : "VEC2"
        },
        {
            "bufferView" : 5,
            "componentType" : 5123,
            "count" : 39,
            "type" : "SCALAR"
        }
    ],
    "bufferViews" : [
        {
            "buffer" : 0,
            "byteLength" : 684,
            "byteOffset" : 0
        },
        {
            "buffer" : 0,
            "byteLength" : 456,
            "byteOffset" : 684
        },
        {
            "buffer" : 0,
            "byteLength" : 186,
            "byteOffset" : 1140
        },
        {
            "buffer" : 0,
            "byteLength" : 204,
            "byteOffset" : 1328
        },
        {
            "buffer" : 0,
            "byteLength" : 136,
            "byteOffset" : 1532
        },
        {
            "buffer" : 0,
            "byteLength" : 78,
            "byteOffset" : 1668
        }
    ],
    "buffers" : [
        {
            "byteLength" : 1748,
            "uri" : "stone1.bin"
        }
    ]
}
