{
    "asset" : {
        "generator" : "Khronos glTF Blender I/O v1.1.45",
        "version" : "2.0"
    },
    "scene" : 0,
    "scenes" : [
        {
            "name" : "Scene",
            "nodes" : [
                0
            ]
        }
    ],
    "nodes" : [
        {
            "mesh" : 0,
            "name" : "Plane",
            "scale" : [
                8.471417427062988,
                8.471417427062988,
                8.471417427062988
            ]
        }
    ],
    "meshes" : [
        {
            "name" : "Plane",
            "primitives" : [
                {
                    "attributes" : {
                        "POSITION" : 0,
                        "NORMAL" : 1,
                        "TEXCOORD_0" : 2
                    },
                    "indices" : 3
                }
            ]
        }
    ],
    "accessors" : [
        {
            "bufferView" : 0,
            "componentType" : 5126,
            "count" : 1586,
            "max" : [
                1,
                1.421940803527832,
                1
            ],
            "min" : [
                -1.0842857360839844,
                -0.07190500199794769,
                -1.1874690055847168
            ],
            "type" : "VEC3"
        },
        {
            "bufferView" : 1,
            "componentType" : 5126,
            "count" : 1586,
            "type" : "VEC3"
        },
        {
            "bufferView" : 2,
            "componentType" : 5126,
            "count" : 1586,
            "type" : "VEC2"
        },
        {
            "bufferView" : 3,
            "componentType" : 5123,
            "count" : 1590,
            "type" : "SCALAR"
        }
    ],
    "bufferViews" : [
        {
            "buffer" : 0,
            "byteLength" : 19032,
            "byteOffset" : 0
        },
        {
            "buffer" : 0,
            "byteLength" : 19032,
            "byteOffset" : 19032
        },
        {
            "buffer" : 0,
            "byteLength" : 12688,
            "byteOffset" : 38064
        },
        {
            "buffer" : 0,
            "byteLength" : 3180,
            "byteOffset" : 50752
        }
    ],
    "buffers" : [
        {
            "byteLength" : 53932,
            "uri" : "cliff.bin"
        }
    ]
}
