{
    "asset" : {
        "generator" : "Khronos glTF Blender I/O v1.1.45",
        "version" : "2.0"
    },
    "scene" : 0,
    "scenes" : [
        {
            "name" : "Scene",
            "nodes" : [
                0,
                1
            ]
        }
    ],
    "nodes" : [
        {
            "mesh" : 0,
            "name" : "Icosphere",
            "translation" : [
                0,
                0.27169087529182434,
                0
            ]
        },
        {
            "mesh" : 1,
            "name" : "Plane"
        }
    ],
    "meshes" : [
        {
            "name" : "Icosphere",
            "primitives" : [
                {
                    "attributes" : {
                        "POSITION" : 0,
                        "NORMAL" : 1,
                        "TEXCOORD_0" : 2
                    },
                    "indices" : 3
                }
            ]
        },
        {
            "name" : "Plane",
            "primitives" : [
                {
                    "attributes" : {
                        "POSITION" : 4,
                        "NORMAL" : 5,
                        "TEXCOORD_0" : 6
                    },
                    "indices" : 7
                }
            ]
        }
    ],
    "accessors" : [
        {
            "bufferView" : 0,
            "componentType" : 5126,
            "count" : 336,
            "max" : [
                1.9313526153564453,
                5.158086776733398,
                1.9063295125961304
            ],
            "min" : [
                -2.022733449935913,
                0,
                -1.8507673740386963
            ],
            "type" : "VEC3"
        },
        {
            "bufferView" : 1,
            "componentType" : 5126,
            "count" : 336,
            "type" : "VEC3"
        },
        {
            "bufferView" : 2,
            "componentType" : 5126,
            "count" : 336,
            "type" : "VEC2"
        },
        {
            "bufferView" : 3,
            "componentType" : 5123,
            "count" : 336,
            "type" : "SCALAR"
        },
        {
            "bufferView" : 4,
            "componentType" : 5126,
            "count" : 726,
            "max" : [
                16.533565521240234,
                0.8504763841629028,
                16.4532527923584
            ],
            "min" : [
                -16.389545440673828,
                -2.5499067306518555,
                -16.596519470214844
            ],
            "type" : "VEC3"
        },
        {
            "bufferView" : 5,
            "componentType" : 5126,
            "count" : 726,
            "type" : "VEC3"
        },
        {
            "bufferView" : 6,
            "componentType" : 5126,
            "count" : 726,
            "type" : "VEC2"
        },
        {
            "bufferView" : 7,
            "componentType" : 5123,
            "count" : 726,
            "type" : "SCALAR"
        }
    ],
    "bufferViews" : [
        {
            "buffer" : 0,
            "byteLength" : 4032,
            "byteOffset" : 0
        },
        {
            "buffer" : 0,
            "byteLength" : 4032,
            "byteOffset" : 4032
        },
        {
            "buffer" : 0,
            "byteLength" : 2688,
            "byteOffset" : 8064
        },
        {
            "buffer" : 0,
            "byteLength" : 672,
            "byteOffset" : 10752
        },
        {
            "buffer" : 0,
            "byteLength" : 8712,
            "byteOffset" : 11424
        },
        {
            "buffer" : 0,
            "byteLength" : 8712,
            "byteOffset" : 20136
        },
        {
            "buffer" : 0,
            "byteLength" : 5808,
            "byteOffset" : 28848
        },
        {
            "buffer" : 0,
            "byteLength" : 1452,
            "byteOffset" : 34656
        }
    ],
    "buffers" : [
        {
            "byteLength" : 36108,
            "uri" : "out.bin"
        }
    ]
}
