{
    "asset" : {
        "generator" : "Khronos glTF Blender I/O v1.1.45",
        "version" : "2.0"
    },
    "scene" : 0,
    "scenes" : [
        {
            "name" : "Scene",
            "nodes" : [
                0,
                1,
                2,
                3
            ]
        }
    ],
    "nodes" : [
        {
            "mesh" : 0,
            "name" : "Cylinder",
            "translation" : [
                0,
                0.11173775792121887,
                0
            ]
        },
        {
            "mesh" : 1,
            "name" : "Suzanne",
            "rotation" : [
                -0.20511719584465027,
                0.7953764796257019,
                0.24935545027256012,
                0.5129572153091431
            ],
            "scale" : [
                0.6483372449874878,
                0.6483372449874878,
                0.6483372449874878
            ],
            "translation" : [
                -1.8959887027740479,
                0.2894255518913269,
                1.8733482360839844
            ]
        },
        {
            "mesh" : 2,
            "name" : "Torus",
            "translation" : [
                2.2364892959594727,
                0.1428421288728714,
                1.7091792821884155
            ]
        },
        {
            "mesh" : 3,
            "name" : "Plane",
            "scale" : [
                -3.685685157775879,
                -3.685685157775879,
                -3.685685157775879
            ],
            "translation" : [
                0,
                0,
                0.8393653035163879
            ]
        }
    ],
    "meshes" : [
        {
            "name" : "Cylinder",
            "primitives" : [
                {
                    "attributes" : {
                        "POSITION" : 0,
                        "NORMAL" : 1,
                        "TEXCOORD_0" : 2
                    },
                    "indices" : 3
                }
            ]
        },
        {
            "name" : "Suzanne",
            "primitives" : [
                {
                    "attributes" : {
                        "POSITION" : 4,
                        "NORMAL" : 5,
                        "TEXCOORD_0" : 6
                    },
                    "indices" : 7
                }
            ]
        },
        {
            "name" : "Torus",
            "primitives" : [
                {
                    "attributes" : {
                        "POSITION" : 8,
                        "NORMAL" : 9,
                        "TEXCOORD_0" : 10
                    },
                    "indices" : 11
                }
            ]
        },
        {
            "name" : "Plane",
            "primitives" : [
                {
                    "attributes" : {
                        "POSITION" : 12,
                        "NORMAL" : 13,
                        "TEXCOORD_0" : 14
                    },
                    "indices" : 15
                }
            ]
        }
    ],
    "accessors" : [
        {
            "bufferView" : 0,
            "componentType" : 5126,
            "count" : 368,
            "max" : [
                0.7419910430908203,
                2.316699504852295,
                0.8436747193336487
            ],
            "min" : [
                -0.5278736352920532,
                -0.1410466730594635,
                -0.7247260212898254
            ],
            "type" : "VEC3"
        },
        {
            "bufferView" : 1,
            "componentType" : 5126,
            "count" : 368,
            "type" : "VEC3"
        },
        {
            "bufferView" : 2,
            "componentType" : 5126,
            "count" : 368,
            "type" : "VEC2"
        },
        {
            "bufferView" : 3,
            "componentType" : 5123,
            "count" : 510,
            "type" : "SCALAR"
        },
        {
            "bufferView" : 4,
            "componentType" : 5126,
            "count" : 1966,
            "max" : [
                1.3671875,
                0.984375,
                0.8515625
            ],
            "min" : [
                -1.3671875,
                -0.984375,
                -0.8515625
            ],
            "type" : "VEC3"
        },
        {
            "bufferView" : 5,
            "componentType" : 5126,
            "count" : 1966,
            "type" : "VEC3"
        },
        {
            "bufferView" : 6,
            "componentType" : 5126,
            "count" : 1966,
            "type" : "VEC2"
        },
        {
            "bufferView" : 7,
            "componentType" : 5123,
            "count" : 2904,
            "type" : "SCALAR"
        },
        {
            "bufferView" : 8,
            "componentType" : 5126,
            "count" : 288,
            "max" : [
                1.25,
                0.25,
                1.2310097217559814
            ],
            "min" : [
                -1.1746158599853516,
                -0.25,
                -1.2310097217559814
            ],
            "type" : "VEC3"
        },
        {
            "bufferView" : 9,
            "componentType" : 5126,
            "count" : 288,
            "type" : "VEC3"
        },
        {
            "bufferView" : 10,
            "componentType" : 5126,
            "count" : 288,
            "type" : "VEC2"
        },
        {
            "bufferView" : 11,
            "componentType" : 5123,
            "count" : 432,
            "type" : "SCALAR"
        },
        {
            "bufferView" : 12,
            "componentType" : 5126,
            "count" : 4,
            "max" : [
                1,
                0,
                1
            ],
            "min" : [
                -1,
                0,
                -1
            ],
            "type" : "VEC3"
        },
        {
            "bufferView" : 13,
            "componentType" : 5126,
            "count" : 4,
            "type" : "VEC3"
        },
        {
            "bufferView" : 14,
            "componentType" : 5126,
            "count" : 4,
            "type" : "VEC2"
        },
        {
            "bufferView" : 15,
            "componentType" : 5123,
            "count" : 6,
            "type" : "SCALAR"
        }
    ],
    "bufferViews" : [
        {
            "buffer" : 0,
            "byteLength" : 4416,
            "byteOffset" : 0
        },
        {
            "buffer" : 0,
            "byteLength" : 4416,
            "byteOffset" : 4416
        },
        {
            "buffer" : 0,
            "byteLength" : 2944,
            "byteOffset" : 8832
        },
        {
            "buffer" : 0,
            "byteLength" : 1020,
            "byteOffset" : 11776
        },
        {
            "buffer" : 0,
            "byteLength" : 23592,
            "byteOffset" : 12796
        },
        {
            "buffer" : 0,
            "byteLength" : 23592,
            "byteOffset" : 36388
        },
        {
            "buffer" : 0,
            "byteLength" : 15728,
            "byteOffset" : 59980
        },
        {
            "buffer" : 0,
            "byteLength" : 5808,
            "byteOffset" : 75708
        },
        {
            "buffer" : 0,
            "byteLength" : 3456,
            "byteOffset" : 81516
        },
        {
            "buffer" : 0,
            "byteLength" : 3456,
            "byteOffset" : 84972
        },
        {
            "buffer" : 0,
            "byteLength" : 2304,
            "byteOffset" : 88428
        },
        {
            "buffer" : 0,
            "byteLength" : 864,
            "byteOffset" : 90732
        },
        {
            "buffer" : 0,
            "byteLength" : 48,
            "byteOffset" : 91596
        },
        {
            "buffer" : 0,
            "byteLength" : 48,
            "byteOffset" : 91644
        },
        {
            "buffer" : 0,
            "byteLength" : 32,
            "byteOffset" : 91692
        },
        {
            "buffer" : 0,
            "byteLength" : 12,
            "byteOffset" : 91724
        }
    ],
    "buffers" : [
        {
            "byteLength" : 91736,
            "uri" : "three.bin"
        }
    ]
}
