{
    "asset" : {
        "generator" : "Khronos glTF Blender I/O v1.1.45",
        "version" : "2.0"
    },
    "scene" : 0,
    "scenes" : [
        {
            "name" : "Scene",
            "nodes" : [
                0
            ]
        }
    ],
    "nodes" : [
        {
            "mesh" : 0,
            "name" : "Mball.009"
        }
    ],
    "materials" : [
        {
            "doubleSided" : true,
            "emissiveFactor" : [
                0,
                0,
                0
            ],
            "name" : "AH.004",
            "pbrMetallicRoughness" : {
                "baseColorTexture" : {
                    "index" : 0,
                    "texCoord" : 0
                },
                "metallicFactor" : 0,
                "roughnessFactor" : 1
            }
        },
        {
            "doubleSided" : true,
            "emissiveFactor" : [
                0,
                0,
                0
            ],
            "name" : "AH.001",
            "pbrMetallicRoughness" : {
                "baseColorTexture" : {
                    "index" : 1,
                    "texCoord" : 0
                },
                "metallicFactor" : 0,
                "roughnessFactor" : 1
            }
        },
        {
            "doubleSided" : true,
            "emissiveFactor" : [
                0,
                0,
                0
            ],
            "name" : "Material.002",
            "pbrMetallicRoughness" : {
                "baseColorTexture" : {
                    "index" : 2,
                    "texCoord" : 0
                },
                "metallicFactor" : 0,
                "roughnessFactor" : 1
            }
        },
        {
            "doubleSided" : true,
            "emissiveFactor" : [
                0,
                0,
                0
            ],
            "name" : "AH.002",
            "pbrMetallicRoughness" : {
                "baseColorTexture" : {
                    "index" : 3,
                    "texCoord" : 0
                },
                "metallicFactor" : 0,
                "roughnessFactor" : 1
            }
        },
        {
            "doubleSided" : true,
            "emissiveFactor" : [
                0,
                0,
                0
            ],
            "name" : "AH",
            "pbrMetallicRoughness" : {
                "baseColorTexture" : {
                    "index" : 4,
                    "texCoord" : 0
                },
                "metallicFactor" : 0,
                "roughnessFactor" : 1
            }
        }
    ],
    "meshes" : [
        {
            "name" : "Mesh.009",
            "primitives" : [
                {
                    "attributes" : {
                        "POSITION" : 0,
                        "TEXCOORD_0" : 1
                    },
                    "indices" : 2,
                    "material" : 0
                },
                {
                    "attributes" : {
                        "POSITION" : 3,
                        "TEXCOORD_0" : 4
                    },
                    "indices" : 5,
                    "material" : 1
                },
                {
                    "attributes" : {
                        "POSITION" : 6,
                        "TEXCOORD_0" : 7
                    },
                    "indices" : 8,
                    "material" : 2
                },
                {
                    "attributes" : {
                        "POSITION" : 9,
                        "TEXCOORD_0" : 10
                    },
                    "indices" : 11,
                    "material" : 3
                },
                {
                    "attributes" : {
                        "POSITION" : 12,
                        "TEXCOORD_0" : 13
                    },
                    "indices" : 14,
                    "material" : 4
                }
            ]
        }
    ],
    "textures" : [
        {
            "source" : 0
        },
        {
            "source" : 0
        },
        {
            "source" : 0
        },
        {
            "source" : 0
        },
        {
            "source" : 0
        }
    ],
    "images" : [
        {
            "mimeType" : "image/png",
            "name" : "Shadowmap",
            "uri" : "Shadowmap.png"
        }
    ],
    "accessors" : [
        {
            "bufferView" : 0,
            "componentType" : 5126,
            "count" : 4608,
            "max" : [
                4.2439374923706055,
                1.0846786499023438,
                4.391016960144043
            ],
            "min" : [
                -4.180146217346191,
                -0.25938791036605835,
                -4.682149410247803
            ],
            "type" : "VEC3"
        },
        {
            "bufferView" : 1,
            "componentType" : 5126,
            "count" : 4608,
            "type" : "VEC2"
        },
        {
            "bufferView" : 2,
            "componentType" : 5123,
            "count" : 4608,
            "type" : "SCALAR"
        },
        {
            "bufferView" : 3,
            "componentType" : 5126,
            "count" : 1944,
            "max" : [
                5,
                0.6620128750801086,
                5
            ],
            "min" : [
                -5,
                -0.3641852140426636,
                -5
            ],
            "type" : "VEC3"
        },
        {
            "bufferView" : 4,
            "componentType" : 5126,
            "count" : 1944,
            "type" : "VEC2"
        },
        {
            "bufferView" : 5,
            "componentType" : 5123,
            "count" : 1944,
            "type" : "SCALAR"
        },
        {
            "bufferView" : 6,
            "componentType" : 5126,
            "count" : 456,
            "max" : [
                1.5,
                -0.18142595887184143,
                5
            ],
            "min" : [
                -2.5,
                -0.305113822221756,
                -5
            ],
            "type" : "VEC3"
        },
        {
            "bufferView" : 7,
            "componentType" : 5126,
            "count" : 456,
            "type" : "VEC2"
        },
        {
            "bufferView" : 8,
            "componentType" : 5123,
            "count" : 456,
            "type" : "SCALAR"
        },
        {
            "bufferView" : 9,
            "componentType" : 5126,
            "count" : 1512,
            "max" : [
                3.4282097816467285,
                3.7403199672698975,
                3.386674642562866
            ],
            "min" : [
                -3.5596659183502197,
                1.132508397102356,
                -4.1041364669799805
            ],
            "type" : "VEC3"
        },
        {
            "bufferView" : 10,
            "componentType" : 5126,
            "count" : 1512,
            "type" : "VEC2"
        },
        {
            "bufferView" : 11,
            "componentType" : 5123,
            "count" : 1512,
            "type" : "SCALAR"
        },
        {
            "bufferView" : 12,
            "componentType" : 5126,
            "count" : 738,
            "max" : [
                2.976980686187744,
                2.2410826683044434,
                2.980649471282959
            ],
            "min" : [
                -3.158351421356201,
                -0.35445499420166016,
                -3.2749807834625244
            ],
            "type" : "VEC3"
        },
        {
            "bufferView" : 13,
            "componentType" : 5126,
            "count" : 738,
            "type" : "VEC2"
        },
        {
            "bufferView" : 14,
            "componentType" : 5123,
            "count" : 738,
            "type" : "SCALAR"
        }
    ],
    "bufferViews" : [
        {
            "buffer" : 0,
            "byteLength" : 55296,
            "byteOffset" : 0
        },
        {
            "buffer" : 0,
            "byteLength" : 36864,
            "byteOffset" : 55296
        },
        {
            "buffer" : 0,
            "byteLength" : 9216,
            "byteOffset" : 92160
        },
        {
            "buffer" : 0,
            "byteLength" : 23328,
            "byteOffset" : 101376
        },
        {
            "buffer" : 0,
            "byteLength" : 15552,
            "byteOffset" : 124704
        },
        {
            "buffer" : 0,
            "byteLength" : 3888,
            "byteOffset" : 140256
        },
        {
            "buffer" : 0,
            "byteLength" : 5472,
            "byteOffset" : 144144
        },
        {
            "buffer" : 0,
            "byteLength" : 3648,
            "byteOffset" : 149616
        },
        {
            "buffer" : 0,
            "byteLength" : 912,
            "byteOffset" : 153264
        },
        {
            "buffer" : 0,
            "byteLength" : 18144,
            "byteOffset" : 154176
        },
        {
            "buffer" : 0,
            "byteLength" : 12096,
            "byteOffset" : 172320
        },
        {
            "buffer" : 0,
            "byteLength" : 3024,
            "byteOffset" : 184416
        },
        {
            "buffer" : 0,
            "byteLength" : 8856,
            "byteOffset" : 187440
        },
        {
            "buffer" : 0,
            "byteLength" : 5904,
            "byteOffset" : 196296
        },
        {
            "buffer" : 0,
            "byteLength" : 1476,
            "byteOffset" : 202200
        }
    ],
    "buffers" : [
        {
            "byteLength" : 203676,
            "uri" : "metacave3.bin"
        }
    ]
}
