{
    "asset" : {
        "generator" : "Khronos glTF Blender I/O v1.1.45",
        "version" : "2.0"
    },
    "scene" : 0,
    "scenes" : [
        {
            "name" : "Scene",
            "nodes" : [
                0,
                1
            ]
        }
    ],
    "nodes" : [
        {
            "mesh" : 0,
            "name" : "Grid",
            "scale" : [
                1.3834840059280396,
                1.3834840059280396,
                1.3834840059280396
            ],
            "translation" : [
                0.587908923625946,
                0,
                1.0288405418395996
            ]
        },
        {
            "mesh" : 1,
            "name" : "Mball.018",
            "scale" : [
                1.574974775314331,
                0.9241911172866821,
                1.574974775314331
            ],
            "translation" : [
                0.7999125123023987,
                -0.17862200736999512,
                4.533647537231445
            ]
        }
    ],
    "materials" : [
        {
            "doubleSided" : true,
            "emissiveFactor" : [
                0,
                0,
                0
            ],
            "name" : "Material.001",
            "pbrMetallicRoughness" : {
                "baseColorTexture" : {
                    "index" : 0,
                    "texCoord" : 0
                },
                "metallicFactor" : 0,
                "roughnessFactor" : 0.5
            }
        },
        {
            "doubleSided" : true,
            "emissiveFactor" : [
                0,
                0,
                0
            ],
            "name" : "Material.002",
            "pbrMetallicRoughness" : {
                "baseColorTexture" : {
                    "index" : 1,
                    "texCoord" : 0
                },
                "metallicFactor" : 0,
                "roughnessFactor" : 1
            }
        }
    ],
    "meshes" : [
        {
            "name" : "Grid",
            "primitives" : [
                {
                    "attributes" : {
                        "POSITION" : 0,
                        "TEXCOORD_0" : 1
                    },
                    "indices" : 2,
                    "material" : 0
                }
            ]
        },
        {
            "name" : "Mesh",
            "primitives" : [
                {
                    "attributes" : {
                        "POSITION" : 3,
                        "TEXCOORD_0" : 4
                    },
                    "indices" : 5,
                    "material" : 1
                }
            ]
        }
    ],
    "textures" : [
        {
            "source" : 0
        },
        {
            "source" : 1
        }
    ],
    "images" : [
        {
            "mimeType" : "image/png",
            "name" : "Untitled",
            "uri" : "Untitled.png"
        },
        {
            "mimeType" : "image/png",
            "name" : "Untitled",
            "uri" : "Untitled-1.png"
        }
    ],
    "accessors" : [
        {
            "bufferView" : 0,
            "componentType" : 5126,
            "count" : 486,
            "max" : [
                5.539999961853027,
                0,
                5.539999961853027
            ],
            "min" : [
                -5.539999961853027,
                0,
                -5.539999961853027
            ],
            "type" : "VEC3"
        },
        {
            "bufferView" : 1,
            "componentType" : 5126,
            "count" : 486,
            "type" : "VEC2"
        },
        {
            "bufferView" : 2,
            "componentType" : 5123,
            "count" : 486,
            "type" : "SCALAR"
        },
        {
            "bufferView" : 3,
            "componentType" : 5126,
            "count" : 1656,
            "max" : [
                2.1767117977142334,
                7.319881439208984,
                1.437434196472168
            ],
            "min" : [
                -4.769327640533447,
                -0.9018901586532593,
                -6.136390686035156
            ],
            "type" : "VEC3"
        },
        {
            "bufferView" : 4,
            "componentType" : 5126,
            "count" : 1656,
            "type" : "VEC2"
        },
        {
            "bufferView" : 5,
            "componentType" : 5123,
            "count" : 1656,
            "type" : "SCALAR"
        }
    ],
    "bufferViews" : [
        {
            "buffer" : 0,
            "byteLength" : 5832,
            "byteOffset" : 0
        },
        {
            "buffer" : 0,
            "byteLength" : 3888,
            "byteOffset" : 5832
        },
        {
            "buffer" : 0,
            "byteLength" : 972,
            "byteOffset" : 9720
        },
        {
            "buffer" : 0,
            "byteLength" : 19872,
            "byteOffset" : 10692
        },
        {
            "buffer" : 0,
            "byteLength" : 13248,
            "byteOffset" : 30564
        },
        {
            "buffer" : 0,
            "byteLength" : 3312,
            "byteOffset" : 43812
        }
    ],
    "buffers" : [
        {
            "byteLength" : 47124,
            "uri" : "metacave.bin"
        }
    ]
}
