{
    "asset" : {
        "generator" : "Khronos glTF Blender I/O v1.1.45",
        "version" : "2.0"
    },
    "scene" : 0,
    "scenes" : [
        {
            "name" : "Scene",
            "nodes" : [
                0,
                1,
                2
            ]
        }
    ],
    "nodes" : [
        {
            "camera" : 0,
            "name" : "Camera",
            "rotation" : [
                0.483536034822464,
                0.20870360732078552,
                0.33687159419059753,
                0.7804827094078064
            ],
            "translation" : [
                7.358891487121582,
                -6.925790786743164,
                4.958309173583984
            ]
        },
        {
            "name" : "Sun",
            "rotation" : [
                0.122187539935112,
                0.2734805941581726,
                0.13600388169288635,
                0.9443418383598328
            ]
        },
        {
            "mesh" : 0,
            "name" : "cart",
            "rotation" : [
                0.6705250144004822,
                -0.2244911938905716,
                -0.2244911640882492,
                0.6705248951911926
            ],
            "scale" : [
                2.578071355819702,
                2.5780715942382812,
                2.5780715942382812
            ],
            "translation" : [
                -1.2738027572631836,
                0.7250876426696777,
                0.4340595602989197
            ]
        }
    ],
    "cameras" : [
        {
            "name" : "Camera",
            "perspective" : {
                "yfov" : 0.39959652046304894,
                "zfar" : 100,
                "znear" : 0.10000000149011612
            },
            "type" : "perspective"
        }
    ],
    "materials" : [
        {
            "doubleSided" : true,
            "emissiveFactor" : [
                0,
                0,
                0
            ],
            "name" : "Material.001",
            "pbrMetallicRoughness" : {
                "baseColorTexture" : {
                    "index" : 0,
                    "texCoord" : 0
                },
                "metallicFactor" : 0,
                "roughnessFactor" : 0
            }
        }
    ],
    "meshes" : [
        {
            "name" : "Mesh cart",
            "primitives" : [
                {
                    "attributes" : {
                        "POSITION" : 0,
                        "NORMAL" : 1,
                        "TEXCOORD_0" : 2,
                        "TEXCOORD_1" : 3,
                        "TEXCOORD_2" : 4
                    },
                    "indices" : 5,
                    "material" : 0
                }
            ]
        }
    ],
    "textures" : [
        {
            "source" : 0
        }
    ],
    "images" : [
        {
            "mimeType" : "image/png",
            "name" : "lightmap",
            "uri" : "lightmap.png"
        }
    ],
    "accessors" : [
        {
            "bufferView" : 0,
            "componentType" : 5126,
            "count" : 3022,
            "max" : [
                2.7092244625091553,
                2.2583324909210205,
                2.0724501609802246
            ],
            "min" : [
                -1.581557035446167,
                -0.0058067780919373035,
                -2.2183308601379395
            ],
            "type" : "VEC3"
        },
        {
            "bufferView" : 1,
            "componentType" : 5126,
            "count" : 3022,
            "type" : "VEC3"
        },
        {
            "bufferView" : 2,
            "componentType" : 5126,
            "count" : 3022,
            "type" : "VEC2"
        },
        {
            "bufferView" : 3,
            "componentType" : 5126,
            "count" : 3022,
            "type" : "VEC2"
        },
        {
            "bufferView" : 4,
            "componentType" : 5126,
            "count" : 3022,
            "type" : "VEC2"
        },
        {
            "bufferView" : 5,
            "componentType" : 5123,
            "count" : 3024,
            "type" : "SCALAR"
        }
    ],
    "bufferViews" : [
        {
            "buffer" : 0,
            "byteLength" : 36264,
            "byteOffset" : 0
        },
        {
            "buffer" : 0,
            "byteLength" : 36264,
            "byteOffset" : 36264
        },
        {
            "buffer" : 0,
            "byteLength" : 24176,
            "byteOffset" : 72528
        },
        {
            "buffer" : 0,
            "byteLength" : 24176,
            "byteOffset" : 96704
        },
        {
            "buffer" : 0,
            "byteLength" : 24176,
            "byteOffset" : 120880
        },
        {
            "buffer" : 0,
            "byteLength" : 6048,
            "byteOffset" : 145056
        }
    ],
    "buffers" : [
        {
            "byteLength" : 151104,
            "uri" : "bake.bin"
        }
    ]
}
