{
    "asset" : {
        "generator" : "Khronos glTF Blender I/O v1.1.45",
        "version" : "2.0"
    },
    "scene" : 0,
    "scenes" : [
        {
            "name" : "Scene",
            "nodes" : [
                0,
                1,
                2,
                3
            ]
        }
    ],
    "nodes" : [
        {
            "mesh" : 0,
            "name" : "Plane"
        },
        {
            "mesh" : 1,
            "name" : "Plane.001",
            "scale" : [
                2.9703619480133057,
                2.9703619480133057,
                2.9703619480133057
            ]
        },
        {
            "mesh" : 2,
            "name" : "Plane.002"
        },
        {
            "mesh" : 3,
            "name" : "Plane.003"
        }
    ],
    "materials" : [
        {
            "emissiveFactor" : [
                0,
                0,
                0
            ],
            "name" : "Material.001",
            "pbrMetallicRoughness" : {
                "baseColorTexture" : {
                    "index" : 0,
                    "texCoord" : 0
                },
                "metallicFactor" : 0,
                "roughnessFactor" : 0.5
            }
        }
    ],
    "meshes" : [
        {
            "name" : "Plane",
            "primitives" : [
                {
                    "attributes" : {
                        "POSITION" : 0,
                        "NORMAL" : 1,
                        "TEXCOORD_0" : 2
                    },
                    "indices" : 3,
                    "material" : 0
                }
            ]
        },
        {
            "name" : "Plane.001",
            "primitives" : [
                {
                    "attributes" : {
                        "POSITION" : 4,
                        "NORMAL" : 5,
                        "TEXCOORD_0" : 6
                    },
                    "indices" : 7,
                    "material" : 0
                }
            ]
        },
        {
            "name" : "Plane.002",
            "primitives" : [
                {
                    "attributes" : {
                        "POSITION" : 8,
                        "NORMAL" : 9,
                        "TEXCOORD_0" : 10
                    },
                    "indices" : 11,
                    "material" : 0
                }
            ]
        },
        {
            "name" : "Plane.005",
            "primitives" : [
                {
                    "attributes" : {
                        "POSITION" : 12,
                        "NORMAL" : 13,
                        "TEXCOORD_0" : 14
                    },
                    "indices" : 7,
                    "material" : 0
                }
            ]
        }
    ],
    "textures" : [
        {
            "source" : 0
        }
    ],
    "images" : [
        {
            "mimeType" : "image/png",
            "name" : "texture",
            "uri" : "texture.png"
        }
    ],
    "accessors" : [
        {
            "bufferView" : 0,
            "componentType" : 5126,
            "count" : 26,
            "max" : [
                0,
                5.766550064086914,
                9.243868827819824
            ],
            "min" : [
                0,
                -5.766550064086914,
                -9.243868827819824
            ],
            "type" : "VEC3"
        },
        {
            "bufferView" : 1,
            "componentType" : 5126,
            "count" : 26,
            "type" : "VEC3"
        },
        {
            "bufferView" : 2,
            "componentType" : 5126,
            "count" : 26,
            "type" : "VEC2"
        },
        {
            "bufferView" : 3,
            "componentType" : 5123,
            "count" : 48,
            "type" : "SCALAR"
        },
        {
            "bufferView" : 4,
            "componentType" : 5126,
            "count" : 4,
            "max" : [
                -6.968070030212402,
                5.745064735412598,
                5.7450642585754395
            ],
            "min" : [
                -6.968070030212402,
                -5.745064735412598,
                -5.7450642585754395
            ],
            "type" : "VEC3"
        },
        {
            "bufferView" : 5,
            "componentType" : 5126,
            "count" : 4,
            "type" : "VEC3"
        },
        {
            "bufferView" : 6,
            "componentType" : 5126,
            "count" : 4,
            "type" : "VEC2"
        },
        {
            "bufferView" : 7,
            "componentType" : 5123,
            "count" : 6,
            "type" : "SCALAR"
        },
        {
            "bufferView" : 8,
            "componentType" : 5126,
            "count" : 16,
            "max" : [
                3.2359297275543213,
                -1.7800569534301758,
                2.9068820476531982
            ],
            "min" : [
                0,
                -2.4332895278930664,
                -1.7147341966629028
            ],
            "type" : "VEC3"
        },
        {
            "bufferView" : 9,
            "componentType" : 5126,
            "count" : 16,
            "type" : "VEC3"
        },
        {
            "bufferView" : 10,
            "componentType" : 5126,
            "count" : 16,
            "type" : "VEC2"
        },
        {
            "bufferView" : 11,
            "componentType" : 5123,
            "count" : 24,
            "type" : "SCALAR"
        },
        {
            "bufferView" : 12,
            "componentType" : 5126,
            "count" : 4,
            "max" : [
                2.137706995010376,
                1.4906978607177734,
                1.6944115161895752
            ],
            "min" : [
                2.137706995010376,
                -1.7544915676116943,
                -0.30558836460113525
            ],
            "type" : "VEC3"
        },
        {
            "bufferView" : 13,
            "componentType" : 5126,
            "count" : 4,
            "type" : "VEC3"
        },
        {
            "bufferView" : 14,
            "componentType" : 5126,
            "count" : 4,
            "type" : "VEC2"
        }
    ],
    "bufferViews" : [
        {
            "buffer" : 0,
            "byteLength" : 312,
            "byteOffset" : 0
        },
        {
            "buffer" : 0,
            "byteLength" : 312,
            "byteOffset" : 312
        },
        {
            "buffer" : 0,
            "byteLength" : 208,
            "byteOffset" : 624
        },
        {
            "buffer" : 0,
            "byteLength" : 96,
            "byteOffset" : 832
        },
        {
            "buffer" : 0,
            "byteLength" : 48,
            "byteOffset" : 928
        },
        {
            "buffer" : 0,
            "byteLength" : 48,
            "byteOffset" : 976
        },
        {
            "buffer" : 0,
            "byteLength" : 32,
            "byteOffset" : 1024
        },
        {
            "buffer" : 0,
            "byteLength" : 12,
            "byteOffset" : 1056
        },
        {
            "buffer" : 0,
            "byteLength" : 192,
            "byteOffset" : 1068
        },
        {
            "buffer" : 0,
            "byteLength" : 192,
            "byteOffset" : 1260
        },
        {
            "buffer" : 0,
            "byteLength" : 128,
            "byteOffset" : 1452
        },
        {
            "buffer" : 0,
            "byteLength" : 48,
            "byteOffset" : 1580
        },
        {
            "buffer" : 0,
            "byteLength" : 48,
            "byteOffset" : 1628
        },
        {
            "buffer" : 0,
            "byteLength" : 48,
            "byteOffset" : 1676
        },
        {
            "buffer" : 0,
            "byteLength" : 32,
            "byteOffset" : 1724
        }
    ],
    "buffers" : [
        {
            "byteLength" : 1756,
            "uri" : "scene.bin"
        }
    ]
}
